<mxfile host="app.diagrams.net" modified="2021-11-14T20:53:24.022Z" agent="5.0 (Windows NT 10.0; Win64; x64) AppleWebKit/537.36 (KHTML, like Gecko) Chrome/95.0.4638.69 Safari/537.36 Edg/95.0.1020.44" etag="G1p2U_GaegSDop64Pjto" version="15.7.3" type="github">
  <diagram id="C5RBs43oDa-KdzZeNtuy" name="Page-1">
    <mxGraphModel dx="1038" dy="588" grid="1" gridSize="10" guides="1" tooltips="1" connect="1" arrows="1" fold="1" page="1" pageScale="1" pageWidth="827" pageHeight="1169" math="0" shadow="0">
      <root>
        <mxCell id="WIyWlLk6GJQsqaUBKTNV-0" />
        <mxCell id="WIyWlLk6GJQsqaUBKTNV-1" parent="WIyWlLk6GJQsqaUBKTNV-0" />
        <mxCell id="WIyWlLk6GJQsqaUBKTNV-2" value="" style="rounded=0;html=1;jettySize=auto;orthogonalLoop=1;fontSize=11;endArrow=block;endFill=0;endSize=8;strokeWidth=1;shadow=0;labelBackgroundColor=none;edgeStyle=orthogonalEdgeStyle;" parent="WIyWlLk6GJQsqaUBKTNV-1" source="WIyWlLk6GJQsqaUBKTNV-3" target="WIyWlLk6GJQsqaUBKTNV-6" edge="1">
          <mxGeometry relative="1" as="geometry" />
        </mxCell>
        <mxCell id="WIyWlLk6GJQsqaUBKTNV-3" value="Radius of circle" style="rounded=1;whiteSpace=wrap;html=1;fontSize=12;glass=0;strokeWidth=1;shadow=0;" parent="WIyWlLk6GJQsqaUBKTNV-1" vertex="1">
          <mxGeometry x="160" y="80" width="120" height="40" as="geometry" />
        </mxCell>
        <mxCell id="WIyWlLk6GJQsqaUBKTNV-6" value="Write the formula" style="rhombus;whiteSpace=wrap;html=1;shadow=0;fontFamily=Helvetica;fontSize=12;align=center;strokeWidth=1;spacing=6;spacingTop=-4;" parent="WIyWlLk6GJQsqaUBKTNV-1" vertex="1">
          <mxGeometry x="170" y="170" width="100" height="80" as="geometry" />
        </mxCell>
        <mxCell id="WIyWlLk6GJQsqaUBKTNV-10" value="Assign radius to the formula" style="rhombus;whiteSpace=wrap;html=1;shadow=0;fontFamily=Helvetica;fontSize=12;align=center;strokeWidth=1;spacing=6;spacingTop=-4;" parent="WIyWlLk6GJQsqaUBKTNV-1" vertex="1">
          <mxGeometry x="170" y="290" width="100" height="80" as="geometry" />
        </mxCell>
        <mxCell id="WIyWlLk6GJQsqaUBKTNV-11" value="(INT) Circumference of circle" style="rounded=1;whiteSpace=wrap;html=1;fontSize=12;glass=0;strokeWidth=1;shadow=0;" parent="WIyWlLk6GJQsqaUBKTNV-1" vertex="1">
          <mxGeometry x="160" y="430" width="120" height="40" as="geometry" />
        </mxCell>
        <mxCell id="pRpOq0UlHV2iXHa9QtvR-0" value="&lt;span class=&quot;sl-description-text &quot; style=&quot;margin: 0px ; padding: 0px ; border: 0px ; font-stretch: inherit ; line-height: 24px ; font-family: &amp;#34;fira sans&amp;#34; ; font-size: 16px ; vertical-align: baseline ; box-sizing: border-box ; word-break: break-word ; color: rgb(45 , 56 , 70) ; background-color: rgb(242 , 245 , 247)&quot;&gt;The program you are given takes the radius of a circle as input.&lt;/span&gt;&lt;br style=&quot;color: rgb(45 , 56 , 70) ; font-family: &amp;#34;fira sans&amp;#34; ; font-size: 16px ; background-color: rgb(242 , 245 , 247)&quot;&gt;&lt;span class=&quot;sl-description-text &quot; style=&quot;margin: 0px ; padding: 0px ; border: 0px ; font-stretch: inherit ; line-height: 24px ; font-family: &amp;#34;fira sans&amp;#34; ; font-size: 16px ; vertical-align: baseline ; box-sizing: border-box ; word-break: break-word ; color: rgb(45 , 56 , 70) ; background-color: rgb(242 , 245 , 247)&quot;&gt;Complete the given function to take the given radius as an argument and return the circumference of the circle.&lt;/span&gt;" style="text;html=1;strokeColor=none;fillColor=none;align=center;verticalAlign=middle;whiteSpace=wrap;rounded=0;" vertex="1" parent="WIyWlLk6GJQsqaUBKTNV-1">
          <mxGeometry x="500" y="40" width="260" height="160" as="geometry" />
        </mxCell>
        <mxCell id="pRpOq0UlHV2iXHa9QtvR-1" value="INPUT" style="text;html=1;strokeColor=none;fillColor=none;align=center;verticalAlign=middle;whiteSpace=wrap;rounded=0;" vertex="1" parent="WIyWlLk6GJQsqaUBKTNV-1">
          <mxGeometry x="190" y="40" width="60" height="30" as="geometry" />
        </mxCell>
        <mxCell id="pRpOq0UlHV2iXHa9QtvR-3" value="" style="endArrow=classic;html=1;rounded=0;" edge="1" parent="WIyWlLk6GJQsqaUBKTNV-1" source="WIyWlLk6GJQsqaUBKTNV-6" target="WIyWlLk6GJQsqaUBKTNV-10">
          <mxGeometry width="50" height="50" relative="1" as="geometry">
            <mxPoint x="390" y="280" as="sourcePoint" />
            <mxPoint x="440" y="230" as="targetPoint" />
          </mxGeometry>
        </mxCell>
        <mxCell id="pRpOq0UlHV2iXHa9QtvR-4" value="" style="endArrow=classic;html=1;rounded=0;" edge="1" parent="WIyWlLk6GJQsqaUBKTNV-1" source="WIyWlLk6GJQsqaUBKTNV-10" target="WIyWlLk6GJQsqaUBKTNV-11">
          <mxGeometry width="50" height="50" relative="1" as="geometry">
            <mxPoint x="230" y="260" as="sourcePoint" />
            <mxPoint x="230" y="300" as="targetPoint" />
          </mxGeometry>
        </mxCell>
        <mxCell id="pRpOq0UlHV2iXHa9QtvR-5" value="OUTPUT" style="text;html=1;strokeColor=none;fillColor=none;align=center;verticalAlign=middle;whiteSpace=wrap;rounded=0;" vertex="1" parent="WIyWlLk6GJQsqaUBKTNV-1">
          <mxGeometry x="190" y="480" width="60" height="30" as="geometry" />
        </mxCell>
        <mxCell id="pRpOq0UlHV2iXHa9QtvR-6" value="" style="rounded=0;html=1;jettySize=auto;orthogonalLoop=1;fontSize=11;endArrow=block;endFill=0;endSize=8;strokeWidth=1;shadow=0;labelBackgroundColor=none;edgeStyle=orthogonalEdgeStyle;" edge="1" parent="WIyWlLk6GJQsqaUBKTNV-1" source="pRpOq0UlHV2iXHa9QtvR-7" target="pRpOq0UlHV2iXHa9QtvR-8">
          <mxGeometry relative="1" as="geometry" />
        </mxCell>
        <mxCell id="pRpOq0UlHV2iXHa9QtvR-7" value="(INT) Year" style="rounded=1;whiteSpace=wrap;html=1;fontSize=12;glass=0;strokeWidth=1;shadow=0;" vertex="1" parent="WIyWlLk6GJQsqaUBKTNV-1">
          <mxGeometry x="160" y="625" width="120" height="40" as="geometry" />
        </mxCell>
        <mxCell id="pRpOq0UlHV2iXHa9QtvR-8" value="Write the formula" style="rhombus;whiteSpace=wrap;html=1;shadow=0;fontFamily=Helvetica;fontSize=12;align=center;strokeWidth=1;spacing=6;spacingTop=-4;" vertex="1" parent="WIyWlLk6GJQsqaUBKTNV-1">
          <mxGeometry x="170" y="715" width="100" height="80" as="geometry" />
        </mxCell>
        <mxCell id="pRpOq0UlHV2iXHa9QtvR-9" value="Assign year to the formula" style="rhombus;whiteSpace=wrap;html=1;shadow=0;fontFamily=Helvetica;fontSize=12;align=center;strokeWidth=1;spacing=6;spacingTop=-4;" vertex="1" parent="WIyWlLk6GJQsqaUBKTNV-1">
          <mxGeometry x="170" y="835" width="100" height="80" as="geometry" />
        </mxCell>
        <mxCell id="pRpOq0UlHV2iXHa9QtvR-10" value="(INT) Century" style="rounded=1;whiteSpace=wrap;html=1;fontSize=12;glass=0;strokeWidth=1;shadow=0;" vertex="1" parent="WIyWlLk6GJQsqaUBKTNV-1">
          <mxGeometry x="160" y="975" width="120" height="40" as="geometry" />
        </mxCell>
        <mxCell id="pRpOq0UlHV2iXHa9QtvR-11" value="&lt;span style=&quot;color: rgb(45 , 56 , 70) ; font-family: &amp;#34;fira sans&amp;#34; ; font-size: 16px ; background-color: rgb(242 , 245 , 247)&quot;&gt;Create a function that returns the century depending on the year given as a parameter.&lt;/span&gt;" style="text;html=1;strokeColor=none;fillColor=none;align=center;verticalAlign=middle;whiteSpace=wrap;rounded=0;" vertex="1" parent="WIyWlLk6GJQsqaUBKTNV-1">
          <mxGeometry x="500" y="585" width="260" height="160" as="geometry" />
        </mxCell>
        <mxCell id="pRpOq0UlHV2iXHa9QtvR-12" value="INPUT" style="text;html=1;strokeColor=none;fillColor=none;align=center;verticalAlign=middle;whiteSpace=wrap;rounded=0;" vertex="1" parent="WIyWlLk6GJQsqaUBKTNV-1">
          <mxGeometry x="190" y="585" width="60" height="30" as="geometry" />
        </mxCell>
        <mxCell id="pRpOq0UlHV2iXHa9QtvR-13" value="" style="endArrow=classic;html=1;rounded=0;" edge="1" parent="WIyWlLk6GJQsqaUBKTNV-1" source="pRpOq0UlHV2iXHa9QtvR-8" target="pRpOq0UlHV2iXHa9QtvR-9">
          <mxGeometry width="50" height="50" relative="1" as="geometry">
            <mxPoint x="390" y="825" as="sourcePoint" />
            <mxPoint x="440" y="775" as="targetPoint" />
          </mxGeometry>
        </mxCell>
        <mxCell id="pRpOq0UlHV2iXHa9QtvR-14" value="" style="endArrow=classic;html=1;rounded=0;" edge="1" parent="WIyWlLk6GJQsqaUBKTNV-1" source="pRpOq0UlHV2iXHa9QtvR-9" target="pRpOq0UlHV2iXHa9QtvR-10">
          <mxGeometry width="50" height="50" relative="1" as="geometry">
            <mxPoint x="230" y="805" as="sourcePoint" />
            <mxPoint x="230" y="845" as="targetPoint" />
          </mxGeometry>
        </mxCell>
        <mxCell id="pRpOq0UlHV2iXHa9QtvR-15" value="OUTPUT" style="text;html=1;strokeColor=none;fillColor=none;align=center;verticalAlign=middle;whiteSpace=wrap;rounded=0;" vertex="1" parent="WIyWlLk6GJQsqaUBKTNV-1">
          <mxGeometry x="190" y="1025" width="60" height="30" as="geometry" />
        </mxCell>
        <mxCell id="pRpOq0UlHV2iXHa9QtvR-16" value="" style="rounded=0;html=1;jettySize=auto;orthogonalLoop=1;fontSize=11;endArrow=block;endFill=0;endSize=8;strokeWidth=1;shadow=0;labelBackgroundColor=none;edgeStyle=orthogonalEdgeStyle;" edge="1" parent="WIyWlLk6GJQsqaUBKTNV-1" source="pRpOq0UlHV2iXHa9QtvR-17" target="pRpOq0UlHV2iXHa9QtvR-18">
          <mxGeometry relative="1" as="geometry" />
        </mxCell>
        <mxCell id="pRpOq0UlHV2iXHa9QtvR-17" value="(INT) Year, Month, Day" style="rounded=1;whiteSpace=wrap;html=1;fontSize=12;glass=0;strokeWidth=1;shadow=0;" vertex="1" parent="WIyWlLk6GJQsqaUBKTNV-1">
          <mxGeometry x="160" y="1209" width="120" height="40" as="geometry" />
        </mxCell>
        <mxCell id="pRpOq0UlHV2iXHa9QtvR-18" value="Calling the date() method" style="rhombus;whiteSpace=wrap;html=1;shadow=0;fontFamily=Helvetica;fontSize=12;align=center;strokeWidth=1;spacing=6;spacingTop=-4;" vertex="1" parent="WIyWlLk6GJQsqaUBKTNV-1">
          <mxGeometry x="170" y="1299" width="100" height="80" as="geometry" />
        </mxCell>
        <mxCell id="pRpOq0UlHV2iXHa9QtvR-19" value="Return date.day()" style="rhombus;whiteSpace=wrap;html=1;shadow=0;fontFamily=Helvetica;fontSize=12;align=center;strokeWidth=1;spacing=6;spacingTop=-4;" vertex="1" parent="WIyWlLk6GJQsqaUBKTNV-1">
          <mxGeometry x="170" y="1419" width="100" height="80" as="geometry" />
        </mxCell>
        <mxCell id="pRpOq0UlHV2iXHa9QtvR-20" value="(STR) Day of the week" style="rounded=1;whiteSpace=wrap;html=1;fontSize=12;glass=0;strokeWidth=1;shadow=0;" vertex="1" parent="WIyWlLk6GJQsqaUBKTNV-1">
          <mxGeometry x="160" y="1559" width="120" height="40" as="geometry" />
        </mxCell>
        <mxCell id="pRpOq0UlHV2iXHa9QtvR-21" value="&lt;span class=&quot;sl-description-text &quot; style=&quot;margin: 0px ; padding: 0px ; border: 0px ; font-stretch: inherit ; line-height: 24px ; font-family: &amp;#34;fira sans&amp;#34; ; font-size: 16px ; vertical-align: baseline ; box-sizing: border-box ; word-break: break-word ; color: rgb(45 , 56 , 70) ; background-color: rgb(242 , 245 , 247)&quot;&gt;The program you are given takes&amp;nbsp;&lt;/span&gt;&lt;span class=&quot;sl-description-styled sl-description-styled--bold&quot; style=&quot;margin: 0px ; padding: 0px ; border: 0px ; font-weight: 700 ; font-stretch: inherit ; line-height: inherit ; font-family: &amp;#34;fira sans&amp;#34; ; font-size: 16px ; vertical-align: baseline ; box-sizing: border-box ; color: rgb(45 , 56 , 70) ; background-color: rgb(242 , 245 , 247)&quot;&gt;&lt;span class=&quot;sl-description-text &quot; style=&quot;text-decoration: inherit ; margin: 0px ; padding: 0px ; border: 0px ; font-style: inherit ; font-variant: inherit ; font-weight: inherit ; font-stretch: inherit ; line-height: 24px ; font-family: inherit ; font-size: inherit ; vertical-align: baseline ; box-sizing: border-box ; word-break: break-word&quot;&gt;year, month and day&lt;/span&gt;&lt;/span&gt;&lt;span class=&quot;sl-description-text &quot; style=&quot;margin: 0px ; padding: 0px ; border: 0px ; font-stretch: inherit ; line-height: 24px ; font-family: &amp;#34;fira sans&amp;#34; ; font-size: 16px ; vertical-align: baseline ; box-sizing: border-box ; word-break: break-word ; color: rgb(45 , 56 , 70) ; background-color: rgb(242 , 245 , 247)&quot;&gt;&amp;nbsp;as input.&lt;/span&gt;&lt;br style=&quot;color: rgb(45 , 56 , 70) ; font-family: &amp;#34;fira sans&amp;#34; ; font-size: 16px ; background-color: rgb(242 , 245 , 247)&quot;&gt;&lt;span class=&quot;sl-description-text &quot; style=&quot;margin: 0px ; padding: 0px ; border: 0px ; font-stretch: inherit ; line-height: 24px ; font-family: &amp;#34;fira sans&amp;#34; ; font-size: 16px ; vertical-align: baseline ; box-sizing: border-box ; word-break: break-word ; color: rgb(45 , 56 , 70) ; background-color: rgb(242 , 245 , 247)&quot;&gt;Create a function that takes them as arguments and returns the corresponding&amp;nbsp;&lt;/span&gt;&lt;span class=&quot;sl-description-styled sl-description-styled--bold&quot; style=&quot;margin: 0px ; padding: 0px ; border: 0px ; font-weight: 700 ; font-stretch: inherit ; line-height: inherit ; font-family: &amp;#34;fira sans&amp;#34; ; font-size: 16px ; vertical-align: baseline ; box-sizing: border-box ; color: rgb(45 , 56 , 70) ; background-color: rgb(242 , 245 , 247)&quot;&gt;&lt;span class=&quot;sl-description-text &quot; style=&quot;text-decoration: inherit ; margin: 0px ; padding: 0px ; border: 0px ; font-style: inherit ; font-variant: inherit ; font-weight: inherit ; font-stretch: inherit ; line-height: 24px ; font-family: inherit ; font-size: inherit ; vertical-align: baseline ; box-sizing: border-box ; word-break: break-word&quot;&gt;day of the week&lt;/span&gt;&lt;/span&gt;&lt;span class=&quot;sl-description-text &quot; style=&quot;margin: 0px ; padding: 0px ; border: 0px ; font-stretch: inherit ; line-height: 24px ; font-family: &amp;#34;fira sans&amp;#34; ; font-size: 16px ; vertical-align: baseline ; box-sizing: border-box ; word-break: break-word ; color: rgb(45 , 56 , 70) ; background-color: rgb(242 , 245 , 247)&quot;&gt;.&lt;/span&gt;" style="text;html=1;strokeColor=none;fillColor=none;align=center;verticalAlign=middle;whiteSpace=wrap;rounded=0;" vertex="1" parent="WIyWlLk6GJQsqaUBKTNV-1">
          <mxGeometry x="500" y="1169" width="260" height="160" as="geometry" />
        </mxCell>
        <mxCell id="pRpOq0UlHV2iXHa9QtvR-22" value="INPUT" style="text;html=1;strokeColor=none;fillColor=none;align=center;verticalAlign=middle;whiteSpace=wrap;rounded=0;" vertex="1" parent="WIyWlLk6GJQsqaUBKTNV-1">
          <mxGeometry x="190" y="1169" width="60" height="30" as="geometry" />
        </mxCell>
        <mxCell id="pRpOq0UlHV2iXHa9QtvR-23" value="" style="endArrow=classic;html=1;rounded=0;" edge="1" parent="WIyWlLk6GJQsqaUBKTNV-1" source="pRpOq0UlHV2iXHa9QtvR-18" target="pRpOq0UlHV2iXHa9QtvR-19">
          <mxGeometry width="50" height="50" relative="1" as="geometry">
            <mxPoint x="390" y="1409" as="sourcePoint" />
            <mxPoint x="440" y="1359" as="targetPoint" />
          </mxGeometry>
        </mxCell>
        <mxCell id="pRpOq0UlHV2iXHa9QtvR-24" value="" style="endArrow=classic;html=1;rounded=0;" edge="1" parent="WIyWlLk6GJQsqaUBKTNV-1" source="pRpOq0UlHV2iXHa9QtvR-19" target="pRpOq0UlHV2iXHa9QtvR-20">
          <mxGeometry width="50" height="50" relative="1" as="geometry">
            <mxPoint x="230" y="1389" as="sourcePoint" />
            <mxPoint x="230" y="1429" as="targetPoint" />
          </mxGeometry>
        </mxCell>
        <mxCell id="pRpOq0UlHV2iXHa9QtvR-25" value="OUTPUT" style="text;html=1;strokeColor=none;fillColor=none;align=center;verticalAlign=middle;whiteSpace=wrap;rounded=0;" vertex="1" parent="WIyWlLk6GJQsqaUBKTNV-1">
          <mxGeometry x="190" y="1609" width="60" height="30" as="geometry" />
        </mxCell>
        <mxCell id="pRpOq0UlHV2iXHa9QtvR-26" value="" style="rounded=0;html=1;jettySize=auto;orthogonalLoop=1;fontSize=11;endArrow=block;endFill=0;endSize=8;strokeWidth=1;shadow=0;labelBackgroundColor=none;edgeStyle=orthogonalEdgeStyle;" edge="1" parent="WIyWlLk6GJQsqaUBKTNV-1" source="pRpOq0UlHV2iXHa9QtvR-27" target="pRpOq0UlHV2iXHa9QtvR-28">
          <mxGeometry relative="1" as="geometry" />
        </mxCell>
        <mxCell id="pRpOq0UlHV2iXHa9QtvR-27" value="(INT) Price Mult" style="rounded=1;whiteSpace=wrap;html=1;fontSize=12;glass=0;strokeWidth=1;shadow=0;" vertex="1" parent="WIyWlLk6GJQsqaUBKTNV-1">
          <mxGeometry x="160" y="1794" width="120" height="40" as="geometry" />
        </mxCell>
        <mxCell id="pRpOq0UlHV2iXHa9QtvR-28" value="Modifies (ARR) Prices" style="rhombus;whiteSpace=wrap;html=1;shadow=0;fontFamily=Helvetica;fontSize=12;align=center;strokeWidth=1;spacing=6;spacingTop=-4;" vertex="1" parent="WIyWlLk6GJQsqaUBKTNV-1">
          <mxGeometry x="170" y="1884" width="100" height="80" as="geometry" />
        </mxCell>
        <mxCell id="pRpOq0UlHV2iXHa9QtvR-29" value="Return (ARR) Prices" style="rhombus;whiteSpace=wrap;html=1;shadow=0;fontFamily=Helvetica;fontSize=12;align=center;strokeWidth=1;spacing=6;spacingTop=-4;" vertex="1" parent="WIyWlLk6GJQsqaUBKTNV-1">
          <mxGeometry x="170" y="2004" width="100" height="80" as="geometry" />
        </mxCell>
        <mxCell id="pRpOq0UlHV2iXHa9QtvR-30" value="(ARR) Modified Prices" style="rounded=1;whiteSpace=wrap;html=1;fontSize=12;glass=0;strokeWidth=1;shadow=0;" vertex="1" parent="WIyWlLk6GJQsqaUBKTNV-1">
          <mxGeometry x="160" y="2144" width="120" height="40" as="geometry" />
        </mxCell>
        <mxCell id="pRpOq0UlHV2iXHa9QtvR-31" value="INPUT" style="text;html=1;strokeColor=none;fillColor=none;align=center;verticalAlign=middle;whiteSpace=wrap;rounded=0;" vertex="1" parent="WIyWlLk6GJQsqaUBKTNV-1">
          <mxGeometry x="190" y="1754" width="60" height="30" as="geometry" />
        </mxCell>
        <mxCell id="pRpOq0UlHV2iXHa9QtvR-32" value="" style="endArrow=classic;html=1;rounded=0;" edge="1" parent="WIyWlLk6GJQsqaUBKTNV-1" source="pRpOq0UlHV2iXHa9QtvR-28" target="pRpOq0UlHV2iXHa9QtvR-29">
          <mxGeometry width="50" height="50" relative="1" as="geometry">
            <mxPoint x="390" y="1994" as="sourcePoint" />
            <mxPoint x="440" y="1944" as="targetPoint" />
          </mxGeometry>
        </mxCell>
        <mxCell id="pRpOq0UlHV2iXHa9QtvR-33" value="" style="endArrow=classic;html=1;rounded=0;" edge="1" parent="WIyWlLk6GJQsqaUBKTNV-1" source="pRpOq0UlHV2iXHa9QtvR-29" target="pRpOq0UlHV2iXHa9QtvR-30">
          <mxGeometry width="50" height="50" relative="1" as="geometry">
            <mxPoint x="230" y="1974" as="sourcePoint" />
            <mxPoint x="230" y="2014" as="targetPoint" />
          </mxGeometry>
        </mxCell>
        <mxCell id="pRpOq0UlHV2iXHa9QtvR-34" value="OUTPUT" style="text;html=1;strokeColor=none;fillColor=none;align=center;verticalAlign=middle;whiteSpace=wrap;rounded=0;" vertex="1" parent="WIyWlLk6GJQsqaUBKTNV-1">
          <mxGeometry x="190" y="2194" width="60" height="30" as="geometry" />
        </mxCell>
        <mxCell id="pRpOq0UlHV2iXHa9QtvR-35" value="&lt;span class=&quot;sl-description-text &quot; style=&quot;margin: 0px ; padding: 0px ; border: 0px ; font-stretch: inherit ; line-height: 24px ; font-family: &amp;#34;fira sans&amp;#34; ; font-size: 16px ; vertical-align: baseline ; box-sizing: border-box ; word-break: break-word ; color: rgb(45 , 56 , 70) ; background-color: rgb(242 , 245 , 247)&quot;&gt;You are working on a Store Manager program, which stores the prices in an array.&lt;/span&gt;&lt;br style=&quot;color: rgb(45 , 56 , 70) ; font-family: &amp;#34;fira sans&amp;#34; ; font-size: 16px ; background-color: rgb(242 , 245 , 247)&quot;&gt;&lt;span class=&quot;sl-description-text &quot; style=&quot;margin: 0px ; padding: 0px ; border: 0px ; font-stretch: inherit ; line-height: 24px ; font-family: &amp;#34;fira sans&amp;#34; ; font-size: 16px ; vertical-align: baseline ; box-sizing: border-box ; word-break: break-word ; color: rgb(45 , 56 , 70) ; background-color: rgb(242 , 245 , 247)&quot;&gt;You need to add functionality to increase the prices by the given amount.&lt;/span&gt;&lt;br style=&quot;color: rgb(45 , 56 , 70) ; font-family: &amp;#34;fira sans&amp;#34; ; font-size: 16px ; background-color: rgb(242 , 245 , 247)&quot;&gt;&lt;span class=&quot;sl-description-text &quot; style=&quot;margin: 0px ; padding: 0px ; border: 0px ; font-stretch: inherit ; line-height: 24px ; font-family: &amp;#34;fira sans&amp;#34; ; font-size: 16px ; vertical-align: baseline ; box-sizing: border-box ; word-break: break-word ; color: rgb(45 , 56 , 70) ; background-color: rgb(242 , 245 , 247)&quot;&gt;The&amp;nbsp;&lt;/span&gt;&lt;span class=&quot;sl-description-styled sl-description-styled--bold&quot; style=&quot;margin: 0px ; padding: 0px ; border: 0px ; font-weight: 700 ; font-stretch: inherit ; line-height: inherit ; font-family: &amp;#34;fira sans&amp;#34; ; font-size: 16px ; vertical-align: baseline ; box-sizing: border-box ; color: rgb(45 , 56 , 70) ; background-color: rgb(242 , 245 , 247)&quot;&gt;&lt;span class=&quot;sl-description-text &quot; style=&quot;text-decoration: inherit ; margin: 0px ; padding: 0px ; border: 0px ; font-style: inherit ; font-variant: inherit ; font-weight: inherit ; font-stretch: inherit ; line-height: 24px ; font-family: inherit ; font-size: inherit ; vertical-align: baseline ; box-sizing: border-box ; word-break: break-word&quot;&gt;increase&lt;/span&gt;&lt;/span&gt;&lt;span class=&quot;sl-description-text &quot; style=&quot;margin: 0px ; padding: 0px ; border: 0px ; font-stretch: inherit ; line-height: 24px ; font-family: &amp;#34;fira sans&amp;#34; ; font-size: 16px ; vertical-align: baseline ; box-sizing: border-box ; word-break: break-word ; color: rgb(45 , 56 , 70) ; background-color: rgb(242 , 245 , 247)&quot;&gt;&amp;nbsp;variable is taken from user input. You need to increase all the prices in the given array by that amount and output to the console the resulting array.&lt;/span&gt;" style="text;html=1;strokeColor=none;fillColor=none;align=center;verticalAlign=middle;whiteSpace=wrap;rounded=0;" vertex="1" parent="WIyWlLk6GJQsqaUBKTNV-1">
          <mxGeometry x="470" y="1754" width="320" height="256" as="geometry" />
        </mxCell>
        <mxCell id="pRpOq0UlHV2iXHa9QtvR-36" value="" style="rounded=0;html=1;jettySize=auto;orthogonalLoop=1;fontSize=11;endArrow=block;endFill=0;endSize=8;strokeWidth=1;shadow=0;labelBackgroundColor=none;edgeStyle=orthogonalEdgeStyle;" edge="1" parent="WIyWlLk6GJQsqaUBKTNV-1" source="pRpOq0UlHV2iXHa9QtvR-37" target="pRpOq0UlHV2iXHa9QtvR-38">
          <mxGeometry relative="1" as="geometry" />
        </mxCell>
        <mxCell id="pRpOq0UlHV2iXHa9QtvR-37" value="(ARR) Results" style="rounded=1;whiteSpace=wrap;html=1;fontSize=12;glass=0;strokeWidth=1;shadow=0;" vertex="1" parent="WIyWlLk6GJQsqaUBKTNV-1">
          <mxGeometry x="160" y="2378" width="120" height="40" as="geometry" />
        </mxCell>
        <mxCell id="pRpOq0UlHV2iXHa9QtvR-38" value="For Each - Condition" style="rhombus;whiteSpace=wrap;html=1;shadow=0;fontFamily=Helvetica;fontSize=12;align=center;strokeWidth=1;spacing=6;spacingTop=-4;" vertex="1" parent="WIyWlLk6GJQsqaUBKTNV-1">
          <mxGeometry x="170" y="2468" width="100" height="80" as="geometry" />
        </mxCell>
        <mxCell id="pRpOq0UlHV2iXHa9QtvR-39" value="For Each - Evaluation" style="rhombus;whiteSpace=wrap;html=1;shadow=0;fontFamily=Helvetica;fontSize=12;align=center;strokeWidth=1;spacing=6;spacingTop=-4;" vertex="1" parent="WIyWlLk6GJQsqaUBKTNV-1">
          <mxGeometry x="170" y="2588" width="100" height="80" as="geometry" />
        </mxCell>
        <mxCell id="pRpOq0UlHV2iXHa9QtvR-40" value="(INT) Number of Student Passed" style="rounded=1;whiteSpace=wrap;html=1;fontSize=12;glass=0;strokeWidth=1;shadow=0;" vertex="1" parent="WIyWlLk6GJQsqaUBKTNV-1">
          <mxGeometry x="160" y="2728" width="120" height="40" as="geometry" />
        </mxCell>
        <mxCell id="pRpOq0UlHV2iXHa9QtvR-41" value="INPUT" style="text;html=1;strokeColor=none;fillColor=none;align=center;verticalAlign=middle;whiteSpace=wrap;rounded=0;" vertex="1" parent="WIyWlLk6GJQsqaUBKTNV-1">
          <mxGeometry x="190" y="2338" width="60" height="30" as="geometry" />
        </mxCell>
        <mxCell id="pRpOq0UlHV2iXHa9QtvR-42" value="" style="endArrow=classic;html=1;rounded=0;" edge="1" parent="WIyWlLk6GJQsqaUBKTNV-1" source="pRpOq0UlHV2iXHa9QtvR-38" target="pRpOq0UlHV2iXHa9QtvR-39">
          <mxGeometry width="50" height="50" relative="1" as="geometry">
            <mxPoint x="390" y="2578" as="sourcePoint" />
            <mxPoint x="440" y="2528" as="targetPoint" />
          </mxGeometry>
        </mxCell>
        <mxCell id="pRpOq0UlHV2iXHa9QtvR-43" value="" style="endArrow=classic;html=1;rounded=0;" edge="1" parent="WIyWlLk6GJQsqaUBKTNV-1" source="pRpOq0UlHV2iXHa9QtvR-39" target="pRpOq0UlHV2iXHa9QtvR-40">
          <mxGeometry width="50" height="50" relative="1" as="geometry">
            <mxPoint x="230" y="2558" as="sourcePoint" />
            <mxPoint x="230" y="2598" as="targetPoint" />
          </mxGeometry>
        </mxCell>
        <mxCell id="pRpOq0UlHV2iXHa9QtvR-44" value="OUTPUT" style="text;html=1;strokeColor=none;fillColor=none;align=center;verticalAlign=middle;whiteSpace=wrap;rounded=0;" vertex="1" parent="WIyWlLk6GJQsqaUBKTNV-1">
          <mxGeometry x="190" y="2778" width="60" height="30" as="geometry" />
        </mxCell>
        <mxCell id="pRpOq0UlHV2iXHa9QtvR-54" value="&lt;span class=&quot;sl-description-text &quot; style=&quot;margin: 0px ; padding: 0px ; border: 0px ; font-stretch: inherit ; line-height: 24px ; font-family: &amp;#34;fira sans&amp;#34; ; font-size: 16px ; vertical-align: baseline ; box-sizing: border-box ; word-break: break-word ; color: rgb(45 , 56 , 70) ; background-color: rgb(242 , 245 , 247)&quot;&gt;Students need to score at least 70 points to pass an exam. The given program declares an array with results.&lt;/span&gt;&lt;br style=&quot;color: rgb(45 , 56 , 70) ; font-family: &amp;#34;fira sans&amp;#34; ; font-size: 16px ; background-color: rgb(242 , 245 , 247)&quot;&gt;&lt;span class=&quot;sl-description-text &quot; style=&quot;margin: 0px ; padding: 0px ; border: 0px ; font-stretch: inherit ; line-height: 24px ; font-family: &amp;#34;fira sans&amp;#34; ; font-size: 16px ; vertical-align: baseline ; box-sizing: border-box ; word-break: break-word ; color: rgb(45 , 56 , 70) ; background-color: rgb(242 , 245 , 247)&quot;&gt;Write a program to count and output to the console the number of students who pass the exam.&lt;/span&gt;" style="text;html=1;strokeColor=none;fillColor=none;align=center;verticalAlign=middle;whiteSpace=wrap;rounded=0;" vertex="1" parent="WIyWlLk6GJQsqaUBKTNV-1">
          <mxGeometry x="470" y="2338" width="320" height="256" as="geometry" />
        </mxCell>
        <mxCell id="pRpOq0UlHV2iXHa9QtvR-56" value="" style="rounded=0;html=1;jettySize=auto;orthogonalLoop=1;fontSize=11;endArrow=block;endFill=0;endSize=8;strokeWidth=1;shadow=0;labelBackgroundColor=none;edgeStyle=orthogonalEdgeStyle;" edge="1" parent="WIyWlLk6GJQsqaUBKTNV-1" source="pRpOq0UlHV2iXHa9QtvR-57" target="pRpOq0UlHV2iXHa9QtvR-58">
          <mxGeometry relative="1" as="geometry" />
        </mxCell>
        <mxCell id="pRpOq0UlHV2iXHa9QtvR-57" value="(INT) Salary Increase Percent" style="rounded=1;whiteSpace=wrap;html=1;fontSize=12;glass=0;strokeWidth=1;shadow=0;" vertex="1" parent="WIyWlLk6GJQsqaUBKTNV-1">
          <mxGeometry x="160" y="2963" width="120" height="40" as="geometry" />
        </mxCell>
        <mxCell id="pRpOq0UlHV2iXHa9QtvR-58" value="Mult Input to Salary (ARR)" style="rhombus;whiteSpace=wrap;html=1;shadow=0;fontFamily=Helvetica;fontSize=12;align=center;strokeWidth=1;spacing=6;spacingTop=-4;" vertex="1" parent="WIyWlLk6GJQsqaUBKTNV-1">
          <mxGeometry x="170" y="3053" width="100" height="80" as="geometry" />
        </mxCell>
        <mxCell id="pRpOq0UlHV2iXHa9QtvR-59" value="Return Salary (ARR)" style="rhombus;whiteSpace=wrap;html=1;shadow=0;fontFamily=Helvetica;fontSize=12;align=center;strokeWidth=1;spacing=6;spacingTop=-4;" vertex="1" parent="WIyWlLk6GJQsqaUBKTNV-1">
          <mxGeometry x="170" y="3173" width="100" height="80" as="geometry" />
        </mxCell>
        <mxCell id="pRpOq0UlHV2iXHa9QtvR-60" value="(ARR) Modified Salary" style="rounded=1;whiteSpace=wrap;html=1;fontSize=12;glass=0;strokeWidth=1;shadow=0;" vertex="1" parent="WIyWlLk6GJQsqaUBKTNV-1">
          <mxGeometry x="160" y="3313" width="120" height="40" as="geometry" />
        </mxCell>
        <mxCell id="pRpOq0UlHV2iXHa9QtvR-61" value="INPUT" style="text;html=1;strokeColor=none;fillColor=none;align=center;verticalAlign=middle;whiteSpace=wrap;rounded=0;" vertex="1" parent="WIyWlLk6GJQsqaUBKTNV-1">
          <mxGeometry x="190" y="2923" width="60" height="30" as="geometry" />
        </mxCell>
        <mxCell id="pRpOq0UlHV2iXHa9QtvR-62" value="" style="endArrow=classic;html=1;rounded=0;" edge="1" parent="WIyWlLk6GJQsqaUBKTNV-1" source="pRpOq0UlHV2iXHa9QtvR-58" target="pRpOq0UlHV2iXHa9QtvR-59">
          <mxGeometry width="50" height="50" relative="1" as="geometry">
            <mxPoint x="390" y="3163" as="sourcePoint" />
            <mxPoint x="440" y="3113" as="targetPoint" />
          </mxGeometry>
        </mxCell>
        <mxCell id="pRpOq0UlHV2iXHa9QtvR-63" value="" style="endArrow=classic;html=1;rounded=0;" edge="1" parent="WIyWlLk6GJQsqaUBKTNV-1" source="pRpOq0UlHV2iXHa9QtvR-59" target="pRpOq0UlHV2iXHa9QtvR-60">
          <mxGeometry width="50" height="50" relative="1" as="geometry">
            <mxPoint x="230" y="3143" as="sourcePoint" />
            <mxPoint x="230" y="3183" as="targetPoint" />
          </mxGeometry>
        </mxCell>
        <mxCell id="pRpOq0UlHV2iXHa9QtvR-64" value="OUTPUT" style="text;html=1;strokeColor=none;fillColor=none;align=center;verticalAlign=middle;whiteSpace=wrap;rounded=0;" vertex="1" parent="WIyWlLk6GJQsqaUBKTNV-1">
          <mxGeometry x="190" y="3363" width="60" height="30" as="geometry" />
        </mxCell>
        <mxCell id="pRpOq0UlHV2iXHa9QtvR-65" value="&lt;span class=&quot;sl-description-text &quot; style=&quot;margin: 0px ; padding: 0px ; border: 0px ; font-stretch: inherit ; line-height: 24px ; font-family: &amp;#34;fira sans&amp;#34; ; font-size: 16px ; vertical-align: baseline ; box-sizing: border-box ; word-break: break-word ; color: rgb(45 , 56 , 70) ; background-color: rgb(242 , 245 , 247)&quot;&gt;You have created an array containing the salaries of your factory workers.&lt;/span&gt;&lt;br style=&quot;color: rgb(45 , 56 , 70) ; font-family: &amp;#34;fira sans&amp;#34; ; font-size: 16px ; background-color: rgb(242 , 245 , 247)&quot;&gt;&lt;span class=&quot;sl-description-text &quot; style=&quot;margin: 0px ; padding: 0px ; border: 0px ; font-stretch: inherit ; line-height: 24px ; font-family: &amp;#34;fira sans&amp;#34; ; font-size: 16px ; vertical-align: baseline ; box-sizing: border-box ; word-break: break-word ; color: rgb(45 , 56 , 70) ; background-color: rgb(242 , 245 , 247)&quot;&gt;The manager at the factory has decided to give salary raises to his best workers and needs to the see the impact of these increases on the budget.&lt;/span&gt;&lt;br style=&quot;color: rgb(45 , 56 , 70) ; font-family: &amp;#34;fira sans&amp;#34; ; font-size: 16px ; background-color: rgb(242 , 245 , 247)&quot;&gt;&lt;span class=&quot;sl-description-text &quot; style=&quot;margin: 0px ; padding: 0px ; border: 0px ; font-stretch: inherit ; line-height: 24px ; font-family: &amp;#34;fira sans&amp;#34; ; font-size: 16px ; vertical-align: baseline ; box-sizing: border-box ; word-break: break-word ; color: rgb(45 , 56 , 70) ; background-color: rgb(242 , 245 , 247)&quot;&gt;The program you are given takes the salary percent increase as input. Complete the given function to use the percent as a parameter, then calculate and return the total salary increase for all of the workers in the array.&lt;/span&gt;" style="text;html=1;strokeColor=none;fillColor=none;align=center;verticalAlign=middle;whiteSpace=wrap;rounded=0;" vertex="1" parent="WIyWlLk6GJQsqaUBKTNV-1">
          <mxGeometry x="470" y="2923" width="320" height="256" as="geometry" />
        </mxCell>
      </root>
    </mxGraphModel>
  </diagram>
</mxfile>
